HIERARCHY
ROOT root
{
	OFFSET	0	13.1	24.9
	CHANNELS 6  Xposition Yposition Zposition Xrotation Yrotation Zrotation
	JOINT spine_1
	{
		OFFSET	0	9.99999	0
		CHANNELS 3  Xrotation Yrotation Zrotation
		JOINT spine_2
		{
			OFFSET	0	112	-10
			CHANNELS 3  Xrotation Yrotation Zrotation
			JOINT spine_3
			{
				OFFSET	0	206.5	19.3
				CHANNELS 3  Xrotation Yrotation Zrotation
				JOINT spine_4
				{
					OFFSET	0	110.4	14.6
					CHANNELS 3  Xrotation Yrotation Zrotation
					JOINT neck_1
					{
						OFFSET	0	71.8	-50.3
						CHANNELS 3  Xrotation Yrotation Zrotation
						JOINT neck_2
						{
							OFFSET	0	86.2	-25.8
							CHANNELS 3  Xrotation Yrotation Zrotation
							JOINT head_ee
							{
								OFFSET	0	179.8	-8.7
								CHANNELS 3  Xrotation Yrotation Zrotation
								End Site
								{
									OFFSET	1	0	0
								}
							}
						}
					}
					JOINT left_clavicle
					{
						OFFSET	-43.2	22.4	-70.8
						CHANNELS 3  Xrotation Yrotation Zrotation
						JOINT left_shoulder
						{
							OFFSET	-93.9	-5.79999	48.7
							CHANNELS 3  Xrotation Yrotation Zrotation
							JOINT left_elbow
							{
								OFFSET	-291.4	-30.8	15.2
								CHANNELS 3  Xrotation Yrotation Zrotation
								JOINT left_lowarm_twist
								{
									OFFSET	-110.7	-3.89999	13.6
									CHANNELS 3  Xrotation Yrotation Zrotation
									JOINT left_hand
									{
										OFFSET	-110.7	-3.89999	13.6
										CHANNELS 3  Xrotation Yrotation Zrotation
										JOINT left_ee
										{
											OFFSET	-80.8	-5.10001	12.1
											CHANNELS 3  Xrotation Yrotation Zrotation
											End Site
											{
												OFFSET	1	0	0
											}
										}
									}
								}
							}
						}
					}
					JOINT right_clavicle
					{
						OFFSET	43.2	22.4	-70.8
						CHANNELS 3  Xrotation Yrotation Zrotation
						JOINT right_shoulder
						{
							OFFSET	93.9	-5.79999	48.7
							CHANNELS 3  Xrotation Yrotation Zrotation
							JOINT right_elbow
							{
								OFFSET	291.4	-30.8	15.2
								CHANNELS 3  Xrotation Yrotation Zrotation
								JOINT right_lowarm_twist
								{
									OFFSET	110.7	-3.89999	13.6
									CHANNELS 3  Xrotation Yrotation Zrotation
									JOINT right_hand
									{
										OFFSET	110.7	-3.89999	13.6
										CHANNELS 3  Xrotation Yrotation Zrotation
										JOINT right_ee
										{
											OFFSET	80.8	-5.10001	12.1
											CHANNELS 3  Xrotation Yrotation Zrotation
											End Site
											{
												OFFSET	1	0	0
											}
										}
									}
								}
							}
						}
					}
				}
			}
		}
	}
	JOINT left_hip
	{
		OFFSET	-82.8	-127.5	0.300001
		CHANNELS 3  Xrotation Yrotation Zrotation
		JOINT left_knee
		{
			OFFSET	-28.2	-396.7	2.2
			CHANNELS 3  Xrotation Yrotation Zrotation
			JOINT left_ankle
			{
				OFFSET	-11.7	-411.3	35.4
				CHANNELS 3  Xrotation Yrotation Zrotation
				JOINT left_toes
				{
					OFFSET	0	-60	-88.6
					CHANNELS 3  Xrotation Yrotation Zrotation
					JOINT left_foot_ee
					{
						OFFSET	-22.5	-16.5	-42.2
						CHANNELS 3  Xrotation Yrotation Zrotation
						End Site
						{
							OFFSET	1	0	0
						}
					}
				}
			}
		}
	}
	JOINT right_hip
	{
		OFFSET	82.8	-127.5	0.300001
		CHANNELS 3  Xrotation Yrotation Zrotation
		JOINT right_knee
		{
			OFFSET	28.2	-396.7	2.2
			CHANNELS 3  Xrotation Yrotation Zrotation
			JOINT right_ankle
			{
				OFFSET	11.7	-411.3	35.4
				CHANNELS 3  Xrotation Yrotation Zrotation
				JOINT right_toes
				{
					OFFSET	0	-60	-88.6
					CHANNELS 3  Xrotation Yrotation Zrotation
					JOINT right_foot_ee
					{
						OFFSET	22.5	-16.5	-42.2
						CHANNELS 3  Xrotation Yrotation Zrotation
						End Site
						{
							OFFSET	1	0	0
						}
					}
				}
			}
		}
	}
}
MOTION
Frames: 11
Frame Time: 0.02
433.978225478 712.958 -1205.68674737 178.495912155 -66.1360509225 179.089790918 -2.9717 -0.174192 -0.267042 -2.97167 -0.156846 -0.277585 -2.97084 -0.079101 -0.308864 -2.97095 -0.126887 -0.292495 15.0412 -14.1778 -0.483073 15.9818 -21.6649 -0.084056 -0.0 0.0 -0.0 9.2174 -24.1383 17.3061 -12.0401 -39.2751 55.0049 0.845344 -22.7217 0.169854 24.3183 0.206752 -3.07633 3.54762 -19.7142 15.2864 -0.0 0.0 -0.0 8.09299 -25.0975 -13.8053 -82.6336 63.9583 -9.82453 0.583813 16.1302 -0.082727 -47.1894 3.74612 -4.52789 -1.56979 -3.89184 8.75639 0.0 0.0 0.0 -4.34389 -9.97555 3.08936 -1.49366 0.0586134 0.221723 -22.7053 30.357 3.67554 12.0867 -0.0 -0.0 -0.0 0.0 -0.0 1.08862 35.7415 -0.522082 -7.51441 -0.235671 -1.12833 42.4429 -21.0188 5.27441 40.1269 -0.0 -0.0 0.0 0.0 0.0 
433.993199536 712.958 -1204.95874766 178.551853473 -65.1533558507 179.151194771 -2.9717 -0.174192 -0.267042 -2.97167 -0.156846 -0.277585 -2.97084 -0.079101 -0.308864 -2.97095 -0.126887 -0.292495 15.0412 -14.1778 -0.483073 15.9818 -21.6649 -0.084056 -0.0 0.0 -0.0 9.2174 -24.1383 17.3061 -12.0401 -39.2751 55.0049 0.845344 -22.7217 0.169854 24.3183 0.206752 -3.07633 3.54762 -19.7142 15.2864 -0.0 0.0 -0.0 8.09299 -25.0975 -13.8053 -82.6336 63.9583 -9.82453 0.583813 16.1302 -0.082727 -47.1894 3.74612 -4.52789 -1.56979 -3.89184 8.75639 0.0 0.0 0.0 -4.34389 -9.97555 3.08936 -1.49366 0.0586134 0.221723 -22.7053 30.357 3.67554 12.0867 -0.0 -0.0 -0.0 0.0 -0.0 1.08862 35.7415 -0.522082 -7.51441 -0.235671 -1.12833 42.4429 -21.0188 5.27441 40.1269 -0.0 -0.0 0.0 0.0 0.0 
439.438758176 712.116 -1200.7111126 179.365813013 -66.2353830681 179.443760713 -2.96089 -0.148439 -0.0510417 -2.9609 -0.144891 -0.0603838 -2.96075 -0.124169 -0.0960292 -2.96073 -0.137777 -0.0752138 15.6701 -15.7501 -5.46588 16.215 -19.2016 -6.64841 -0.0 0.0 -0.0 9.38953 -24.0858 17.6943 -10.5913 -38.5605 54.6183 0.889777 -23.7861 0.187397 25.5601 0.182111 -3.23304 4.00691 -23.0 16.6515 -0.0 0.0 -0.0 7.96897 -25.0001 -13.6442 -82.8948 63.6182 -9.38271 0.575386 15.9093 -0.0804015 -50.5415 4.13538 -4.71093 -2.23603 -1.25767 14.5096 0.0 0.0 0.0 -4.41154 -9.59533 2.85078 -1.73865 0.0676735 0.25823 -20.1645 29.1247 3.23497 12.2109 -0.0 -0.0 -0.0 0.0 -0.0 4.97981 41.6087 -0.378039 -7.20376 -0.228876 -1.08115 38.5002 -20.4149 4.89695 39.7083 -0.0 -0.0 0.0 0.0 0.0 
446.082069987 703.134 -1208.33859096 -179.826017458 -65.3154762292 179.826057912 -2.9867 0.014189 -0.514922 -2.98655 0.0469257 -0.512976 -2.98683 0.179107 -0.482978 -2.98714 0.100583 -0.505202 20.7567 -15.8146 -3.68063 21.4064 -19.5677 -4.39332 -0.0 0.0 -0.0 9.12989 -22.2702 17.2814 -7.15139 -39.6849 56.1723 0.955032 -25.3182 0.214514 28.0216 0.123253 -3.54195 4.49457 -26.1668 18.1182 -0.0 0.0 -0.0 7.46466 -25.2839 -12.9051 -84.3051 63.8901 -7.90221 0.496747 13.8245 -0.0602212 -53.8161 4.52525 -4.86745 -3.03509 -3.66312 18.8536 0.0 0.0 0.0 -5.12745 -10.7146 4.10058 0.620637 -0.026054 -0.0916765 -22.3243 31.594 3.64575 12.6309 -0.0 -0.0 -0.0 0.0 -0.0 0.666909 45.8393 5.45931 -8.64241 -0.258193 -1.29996 42.4355 -22.2875 5.30923 40.1305 -0.0 -0.0 0.0 0.0 0.0 
446.064666756 703.134 -1208.57537649 -179.824356051 -65.564323128 179.82788458 -2.9867 0.014189 -0.514922 -2.98655 0.0469257 -0.512976 -2.98683 0.179107 -0.482978 -2.98714 0.100583 -0.505202 20.7567 -15.8146 -3.68063 21.4064 -19.5677 -4.39332 -0.0 0.0 -0.0 9.12989 -22.2702 17.2814 -7.15139 -39.6849 56.1723 0.955032 -25.3182 0.214514 28.0216 0.123253 -3.54195 4.49457 -26.1668 18.1182 -0.0 0.0 -0.0 7.46466 -25.2839 -12.9051 -84.3051 63.8901 -7.90221 0.496747 13.8245 -0.0602212 -53.8161 4.52525 -4.86745 -3.03509 -3.66312 18.8536 0.0 0.0 0.0 -5.12745 -10.7146 4.10058 0.620637 -0.026054 -0.0916765 -22.3243 31.594 3.64575 12.6309 -0.0 -0.0 -0.0 0.0 -0.0 0.666909 45.8393 5.45931 -8.64241 -0.258193 -1.29996 42.4355 -22.2875 5.30923 40.1305 -0.0 -0.0 0.0 0.0 0.0 
458.759181241 701.257 -1201.03004609 -179.394161702 -66.4854123836 179.578159927 -2.8841 0.12695 -0.45304 -2.884 0.15552 -0.444044 -2.88516 0.265274 -0.388576 -2.88531 0.200577 -0.425594 23.3162 -15.4223 -2.38741 24.0492 -19.5498 -2.67437 -0.0 0.0 -0.0 9.0812 -21.99 17.1971 -5.84064 -39.5618 55.3662 0.997378 -26.2921 0.232948 30.4619 0.0518487 -3.84546 4.58262 -27.0278 18.1901 -0.0 0.0 -0.0 6.54872 -23.3266 -11.8118 -86.1776 64.1848 -6.12599 0.612538 16.8797 -0.0908877 -55.4633 4.72456 -4.9377 -3.3734 -4.95471 20.5448 0.0 0.0 0.0 -7.36847 -12.0005 4.32701 4.3654 -0.204224 -0.638484 -23.5107 31.2584 3.83084 13.5223 -0.0 -0.0 -0.0 0.0 -0.0 1.71417 48.6935 5.7144 -9.43735 -0.272033 -1.42116 42.139 -23.1254 5.30776 40.134 -0.0 -0.0 0.0 0.0 0.0 
458.805462096 701.257 -1202.11046822 -179.370844276 -67.4061496816 179.603500426 -2.8841 0.12695 -0.45304 -2.884 0.15552 -0.444044 -2.88516 0.265274 -0.388576 -2.88531 0.200577 -0.425594 23.3162 -15.4223 -2.38741 24.0492 -19.5498 -2.67437 -0.0 0.0 -0.0 9.0812 -21.99 17.1971 -5.84064 -39.5618 55.3662 0.997378 -26.2921 0.232948 30.4619 0.0518487 -3.84546 4.58262 -27.0278 18.1901 -0.0 0.0 -0.0 6.54872 -23.3266 -11.8118 -86.1776 64.1848 -6.12599 0.612538 16.8797 -0.0908877 -55.4633 4.72456 -4.9377 -3.3734 -4.95471 20.5448 0.0 0.0 0.0 -7.36847 -12.0005 4.32701 4.3654 -0.204224 -0.638484 -23.5107 31.2584 3.83084 13.5223 -0.0 -0.0 -0.0 0.0 -0.0 1.71417 48.6935 5.7144 -9.43735 -0.272033 -1.42116 42.139 -23.1254 5.30776 40.134 -0.0 -0.0 0.0 0.0 0.0 
484.437159942 710.164 -1205.70299066 176.650817603 -64.8974349823 175.636544433 -3.12443 -0.600252 -0.744418 -3.12429 -0.551668 -0.781103 -3.11616 -0.326855 -0.898674 -3.11699 -0.464677 -0.835782 13.2257 -7.89923 3.99301 13.9094 -16.2648 5.29582 -0.0 0.0 -0.0 7.69915 -18.7693 14.4009 0.326197 -37.902 55.0828 1.33856 -33.5461 0.403466 44.2911 -0.591072 -5.48814 4.0294 -18.8091 19.0862 -0.0 0.0 -0.0 4.40962 -16.5972 -8.86001 -90.5051 69.8422 -3.09141 0.665672 18.2503 -0.106924 -65.9847 6.03502 -5.24818 -3.74652 -3.27663 24.1348 0.0 0.0 0.0 -8.32505 -24.5698 5.5247 6.36226 -0.313769 -0.925083 -23.2805 30.994 3.78598 25.8654 -0.0 -0.0 -0.0 0.0 -0.0 3.42605 54.8381 9.02706 -5.27344 -0.180921 -0.788811 41.7576 -25.7924 5.36111 40.2106 -0.0 -0.0 0.0 0.0 0.0 
485.243544556 710.894 -1203.19539249 174.996183331 -65.3607772425 174.878367041 -3.12417 -0.464857 -0.840384 -3.12387 -0.410441 -0.868258 -3.11693 -0.16765 -0.94563 -3.11804 -0.314885 -0.907291 8.57608 -6.24439 4.48681 9.04478 -14.427 5.32238 -0.0 0.0 -0.0 6.91188 -17.8017 12.7544 1.39945 -36.5655 54.4321 1.48161 -36.2744 0.485354 47.4489 -0.792288 -5.83856 4.12608 -19.456 19.4122 -0.0 0.0 -0.0 4.85132 -16.2594 -9.56532 -90.3809 70.4036 -3.02272 0.390233 10.9411 -0.0373728 -69.3855 6.46763 -5.29632 -4.10169 0.10618 28.6602 0.0 0.0 0.0 -5.8546 -27.8306 7.83156 1.1435 -0.0487739 -0.168692 -12.6478 31.1333 2.04631 26.2247 -0.0 -0.0 -0.0 0.0 -0.0 3.6053 54.0501 9.70022 0.49001 0.0204875 0.0724042 40.1159 -25.6666 5.20127 40.2471 -0.0 -0.0 0.0 0.0 0.0 
498.187245841 709.984 -1202.00959924 175.600445761 -65.500411276 173.600915305 -3.14555 -0.0833808 -0.449609 -3.14544 -0.0546024 -0.454003 -3.14485 0.0669555 -0.452346 -3.14513 -0.00532371 -0.457244 7.45856 -4.62878 5.4537 7.86069 -12.6471 6.35714 -0.0 0.0 -0.0 6.44376 -16.7006 11.8192 3.032 -35.6463 54.7143 1.6185 -38.7182 0.568698 49.8223 -0.956115 -6.09444 4.32991 -20.3387 20.3491 -0.0 0.0 -0.0 5.01488 -14.1235 -9.85437 -90.7487 69.7273 -2.30861 0.19616 5.55025 -0.0095084 -71.5472 6.74361 -5.31346 -4.65935 3.38262 34.9075 0.0 0.0 0.0 -3.17197 -28.4146 10.4416 -7.51628 0.235711 1.12862 0.869967 28.4893 -0.135292 26.8793 -0.0 -0.0 -0.0 0.0 -0.0 4.54339 54.8189 9.41501 0.89729 0.0379876 0.132452 39.6628 -23.4641 5.08806 40.1254 -0.0 -0.0 0.0 0.0 0.0 
513.969431238 698.332 -1200.56982877 176.429164725 -66.5609215537 174.661055967 -3.22406 0.0330736 -0.529171 -3.2239 0.0666787 -0.525994 -3.22436 0.203604 -0.489553 -3.22468 0.123735 -0.515564 6.7467 -3.88703 5.65497 7.09975 -11.591 6.52056 -0.0 0.0 -0.0 5.77723 -14.5772 10.5341 5.64115 -34.3324 55.3522 1.82467 -42.106 0.702412 51.0891 -1.04788 -6.22822 4.48091 -21.428 20.7876 -0.0 0.0 -0.0 4.54428 -11.3278 -9.06014 -89.8929 70.816 -4.41668 0.157186 4.45248 -0.00611063 -74.059 7.06464 -5.3202 -5.10133 3.18322 38.5084 0.0 0.0 0.0 -2.58768 -28.3995 10.7784 -10.821 0.292106 1.63252 6.26797 18.902 -0.918027 30.5809 -0.0 -0.0 -0.0 0.0 -0.0 4.6439 55.8814 11.227 1.11982 0.0477297 0.165209 42.6895 -23.6885 5.37476 36.1514 -0.0 -0.0 0.0 0.0 0.0 
